<svg width="955" height="691" viewBox="0 0 955 691" fill="none" xmlns="http://www.w3.org/2000/svg">
<path fill-rule="evenodd" clip-rule="evenodd" d="M0.352009 0C318.566 0 636.78 0 954.994 0C954.996 228.19 954.998 456.382 955 684.574C892.818 709.127 841.817 657.121 809.388 607.254C799.884 592.634 797.29 584.8 790.526 569.62C776.376 537.874 754.566 516.319 716.413 511.396C651.024 507.559 619.343 549.604 536.579 538.484C505.437 535.038 480.196 517.498 459.98 487.949C450.665 474.298 445.989 464.1 447.165 458.261C461.651 386.03 467.072 317.301 408.807 276.845C388.12 262.483 364.403 254.254 339.608 250.699C295.254 244.334 249.779 251.957 203.552 248.476C67.9842 237.594 -5.76133 133.151 0.352009 0Z" fill="url(#paint0_linear_5_2753)"/>
<defs>
<linearGradient id="paint0_linear_5_2753" x1="11.3275" y1="-54.0237" x2="993.775" y2="716.25" gradientUnits="userSpaceOnUse">
<stop offset="0.114799" stop-color="#1D1752"/>
<stop offset="0.458876" stop-color="#867CDA"/>
<stop offset="0.855203" stop-color="#1D1752"/>
</linearGradient>
</defs>
</svg>
