<svg width="205" height="21" viewBox="0 0 205 21" fill="none" xmlns="http://www.w3.org/2000/svg">
<path d="M29.986 17L34.424 7.2H35.81L40.262 17H38.792L34.83 7.984H35.39L31.428 17H29.986ZM31.876 14.55L32.254 13.43H37.77L38.176 14.55H31.876ZM41.5279 17V6.612H42.8719V17H41.5279ZM45.4381 17V6.612H46.7821V17H45.4381ZM53.304 17V7.2H57.126C57.9847 7.2 58.7173 7.33533 59.324 7.606C59.9307 7.87667 60.3973 8.26867 60.724 8.782C61.0507 9.29533 61.214 9.90667 61.214 10.616C61.214 11.3253 61.0507 11.9367 60.724 12.45C60.3973 12.954 59.9307 13.3413 59.324 13.612C58.7173 13.8827 57.9847 14.018 57.126 14.018H54.074L54.704 13.374V17H53.304ZM59.856 17L57.364 13.444H58.862L61.382 17H59.856ZM54.704 13.514L54.074 12.828H57.084C57.98 12.828 58.6567 12.6367 59.114 12.254C59.5807 11.862 59.814 11.316 59.814 10.616C59.814 9.916 59.5807 9.37467 59.114 8.992C58.6567 8.60933 57.98 8.418 57.084 8.418H54.074L54.704 7.718V13.514ZM63.2799 17V9.58H64.6239V17H63.2799ZM63.9519 8.152C63.6905 8.152 63.4712 8.068 63.2939 7.9C63.1259 7.732 63.0419 7.52667 63.0419 7.284C63.0419 7.032 63.1259 6.822 63.2939 6.654C63.4712 6.486 63.6905 6.402 63.9519 6.402C64.2132 6.402 64.4279 6.486 64.5959 6.654C64.7732 6.81267 64.8619 7.01333 64.8619 7.256C64.8619 7.508 64.7779 7.72267 64.6099 7.9C64.4419 8.068 64.2225 8.152 63.9519 8.152ZM70.438 19.8C69.7567 19.8 69.094 19.702 68.45 19.506C67.8153 19.3193 67.2973 19.0487 66.896 18.694L67.54 17.658C67.8853 17.9567 68.31 18.19 68.814 18.358C69.318 18.5353 69.8453 18.624 70.396 18.624C71.2733 18.624 71.9173 18.4187 72.328 18.008C72.7387 17.5973 72.944 16.972 72.944 16.132V14.564L73.084 13.094L73.014 11.61V9.58H74.288V15.992C74.288 17.2987 73.9613 18.26 73.308 18.876C72.6547 19.492 71.698 19.8 70.438 19.8ZM70.27 16.692C69.5513 16.692 68.9073 16.5427 68.338 16.244C67.778 15.936 67.33 15.5113 66.994 14.97C66.6673 14.4287 66.504 13.8033 66.504 13.094C66.504 12.3753 66.6673 11.75 66.994 11.218C67.33 10.6767 67.778 10.2567 68.338 9.958C68.9073 9.65933 69.5513 9.51 70.27 9.51C70.9047 9.51 71.4833 9.64067 72.006 9.902C72.5287 10.154 72.944 10.546 73.252 11.078C73.5693 11.61 73.728 12.282 73.728 13.094C73.728 13.8967 73.5693 14.564 73.252 15.096C72.944 15.628 72.5287 16.0293 72.006 16.3C71.4833 16.5613 70.9047 16.692 70.27 16.692ZM70.424 15.516C70.9187 15.516 71.3573 15.4133 71.74 15.208C72.1227 15.0027 72.4213 14.718 72.636 14.354C72.86 13.99 72.972 13.57 72.972 13.094C72.972 12.618 72.86 12.198 72.636 11.834C72.4213 11.47 72.1227 11.19 71.74 10.994C71.3573 10.7887 70.9187 10.686 70.424 10.686C69.9293 10.686 69.486 10.7887 69.094 10.994C68.7113 11.19 68.408 11.47 68.184 11.834C67.9693 12.198 67.862 12.618 67.862 13.094C67.862 13.57 67.9693 13.99 68.184 14.354C68.408 14.718 68.7113 15.0027 69.094 15.208C69.486 15.4133 69.9293 15.516 70.424 15.516ZM80.818 9.51C81.4247 9.51 81.9567 9.62667 82.414 9.86C82.8807 10.0933 83.2447 10.448 83.506 10.924C83.7674 11.4 83.898 12.002 83.898 12.73V17H82.554V12.884C82.554 12.1653 82.3767 11.624 82.022 11.26C81.6767 10.896 81.1867 10.714 80.552 10.714C80.076 10.714 79.6607 10.8073 79.306 10.994C78.9514 11.1807 78.676 11.456 78.48 11.82C78.2934 12.184 78.2 12.6367 78.2 13.178V17H76.856V6.612H78.2V11.582L77.934 11.05C78.1767 10.5647 78.55 10.1867 79.054 9.916C79.558 9.64533 80.146 9.51 80.818 9.51ZM88.9333 17.084C88.1867 17.084 87.608 16.8833 87.1973 16.482C86.7867 16.0807 86.5813 15.5067 86.5813 14.76V7.956H87.9253V14.704C87.9253 15.1053 88.0233 15.4133 88.2193 15.628C88.4247 15.8427 88.714 15.95 89.0873 15.95C89.5073 15.95 89.8573 15.8333 90.1373 15.6L90.5573 16.566C90.352 16.7433 90.1047 16.874 89.8153 16.958C89.5353 17.042 89.2413 17.084 88.9333 17.084ZM85.3213 10.686V9.58H90.0533V10.686H85.3213ZM94.3102 17.084C93.6942 17.084 93.1062 17 92.5462 16.832C91.9955 16.664 91.5615 16.4587 91.2442 16.216L91.8042 15.152C92.1215 15.3667 92.5135 15.5487 92.9802 15.698C93.4469 15.8473 93.9229 15.922 94.4082 15.922C95.0335 15.922 95.4815 15.8333 95.7522 15.656C96.0322 15.4787 96.1722 15.2313 96.1722 14.914C96.1722 14.6807 96.0882 14.4987 95.9202 14.368C95.7522 14.2373 95.5282 14.1393 95.2482 14.074C94.9775 14.0087 94.6742 13.9527 94.3382 13.906C94.0022 13.85 93.6662 13.7847 93.3302 13.71C92.9942 13.626 92.6862 13.514 92.4062 13.374C92.1262 13.2247 91.9022 13.024 91.7342 12.772C91.5662 12.5107 91.4822 12.1653 91.4822 11.736C91.4822 11.288 91.6082 10.896 91.8602 10.56C92.1122 10.224 92.4669 9.96733 92.9242 9.79C93.3909 9.60333 93.9415 9.51 94.5762 9.51C95.0615 9.51 95.5515 9.57067 96.0462 9.692C96.5502 9.804 96.9609 9.96733 97.2782 10.182L96.7042 11.246C96.3682 11.022 96.0182 10.868 95.6542 10.784C95.2902 10.7 94.9262 10.658 94.5622 10.658C93.9742 10.658 93.5355 10.756 93.2462 10.952C92.9569 11.1387 92.8122 11.3813 92.8122 11.68C92.8122 11.932 92.8962 12.128 93.0642 12.268C93.2415 12.3987 93.4655 12.5013 93.7362 12.576C94.0162 12.6507 94.3242 12.716 94.6602 12.772C94.9962 12.8187 95.3322 12.884 95.6682 12.968C96.0042 13.0427 96.3075 13.15 96.5782 13.29C96.8582 13.43 97.0822 13.626 97.2502 13.878C97.4275 14.13 97.5162 14.466 97.5162 14.886C97.5162 15.334 97.3855 15.7213 97.1242 16.048C96.8629 16.3747 96.4942 16.6313 96.0182 16.818C95.5422 16.9953 94.9729 17.084 94.3102 17.084ZM103.152 17V7.2H106.974C107.832 7.2 108.565 7.33533 109.172 7.606C109.778 7.87667 110.245 8.26867 110.572 8.782C110.898 9.29533 111.062 9.90667 111.062 10.616C111.062 11.3253 110.898 11.9367 110.572 12.45C110.245 12.954 109.778 13.3413 109.172 13.612C108.565 13.8827 107.832 14.018 106.974 14.018H103.922L104.552 13.374V17H103.152ZM109.704 17L107.212 13.444H108.71L111.23 17H109.704ZM104.552 13.514L103.922 12.828H106.932C107.828 12.828 108.504 12.6367 108.962 12.254C109.428 11.862 109.662 11.316 109.662 10.616C109.662 9.916 109.428 9.37467 108.962 8.992C108.504 8.60933 107.828 8.418 106.932 8.418H103.922L104.552 7.718V13.514ZM116.432 17.084C115.638 17.084 114.938 16.9207 114.332 16.594C113.734 16.2673 113.268 15.8193 112.932 15.25C112.605 14.6807 112.442 14.0273 112.442 13.29C112.442 12.5527 112.6 11.8993 112.918 11.33C113.244 10.7607 113.688 10.3173 114.248 10C114.817 9.67333 115.456 9.51 116.166 9.51C116.884 9.51 117.519 9.66867 118.07 9.986C118.62 10.3033 119.05 10.7513 119.358 11.33C119.675 11.8993 119.834 12.5667 119.834 13.332C119.834 13.388 119.829 13.4533 119.82 13.528C119.82 13.6027 119.815 13.6727 119.806 13.738H113.492V12.772H119.106L118.56 13.108C118.569 12.632 118.471 12.2073 118.266 11.834C118.06 11.4607 117.776 11.1713 117.412 10.966C117.057 10.7513 116.642 10.644 116.166 10.644C115.699 10.644 115.284 10.7513 114.92 10.966C114.556 11.1713 114.271 11.4653 114.066 11.848C113.86 12.2213 113.758 12.6507 113.758 13.136V13.36C113.758 13.8547 113.87 14.298 114.094 14.69C114.327 15.0727 114.649 15.3713 115.06 15.586C115.47 15.8007 115.942 15.908 116.474 15.908C116.912 15.908 117.309 15.8333 117.664 15.684C118.028 15.5347 118.345 15.3107 118.616 15.012L119.358 15.88C119.022 16.272 118.602 16.5707 118.098 16.776C117.603 16.9813 117.048 17.084 116.432 17.084ZM123.828 17.084C123.212 17.084 122.624 17 122.064 16.832C121.513 16.664 121.079 16.4587 120.762 16.216L121.322 15.152C121.639 15.3667 122.031 15.5487 122.498 15.698C122.964 15.8473 123.44 15.922 123.926 15.922C124.551 15.922 124.999 15.8333 125.27 15.656C125.55 15.4787 125.69 15.2313 125.69 14.914C125.69 14.6807 125.606 14.4987 125.438 14.368C125.27 14.2373 125.046 14.1393 124.766 14.074C124.495 14.0087 124.192 13.9527 123.856 13.906C123.52 13.85 123.184 13.7847 122.848 13.71C122.512 13.626 122.204 13.514 121.924 13.374C121.644 13.2247 121.42 13.024 121.252 12.772C121.084 12.5107 121 12.1653 121 11.736C121 11.288 121.126 10.896 121.378 10.56C121.63 10.224 121.984 9.96733 122.442 9.79C122.908 9.60333 123.459 9.51 124.094 9.51C124.579 9.51 125.069 9.57067 125.564 9.692C126.068 9.804 126.478 9.96733 126.796 10.182L126.222 11.246C125.886 11.022 125.536 10.868 125.172 10.784C124.808 10.7 124.444 10.658 124.08 10.658C123.492 10.658 123.053 10.756 122.764 10.952C122.474 11.1387 122.33 11.3813 122.33 11.68C122.33 11.932 122.414 12.128 122.582 12.268C122.759 12.3987 122.983 12.5013 123.254 12.576C123.534 12.6507 123.842 12.716 124.178 12.772C124.514 12.8187 124.85 12.884 125.186 12.968C125.522 13.0427 125.825 13.15 126.096 13.29C126.376 13.43 126.6 13.626 126.768 13.878C126.945 14.13 127.034 14.466 127.034 14.886C127.034 15.334 126.903 15.7213 126.642 16.048C126.38 16.3747 126.012 16.6313 125.536 16.818C125.06 16.9953 124.49 17.084 123.828 17.084ZM132.017 17.084C131.224 17.084 130.524 16.9207 129.917 16.594C129.32 16.2673 128.853 15.8193 128.517 15.25C128.191 14.6807 128.027 14.0273 128.027 13.29C128.027 12.5527 128.186 11.8993 128.503 11.33C128.83 10.7607 129.273 10.3173 129.833 10C130.403 9.67333 131.042 9.51 131.751 9.51C132.47 9.51 133.105 9.66867 133.655 9.986C134.206 10.3033 134.635 10.7513 134.943 11.33C135.261 11.8993 135.419 12.5667 135.419 13.332C135.419 13.388 135.415 13.4533 135.405 13.528C135.405 13.6027 135.401 13.6727 135.391 13.738H129.077V12.772H134.691L134.145 13.108C134.155 12.632 134.057 12.2073 133.851 11.834C133.646 11.4607 133.361 11.1713 132.997 10.966C132.643 10.7513 132.227 10.644 131.751 10.644C131.285 10.644 130.869 10.7513 130.505 10.966C130.141 11.1713 129.857 11.4653 129.651 11.848C129.446 12.2213 129.343 12.6507 129.343 13.136V13.36C129.343 13.8547 129.455 14.298 129.679 14.69C129.913 15.0727 130.235 15.3713 130.645 15.586C131.056 15.8007 131.527 15.908 132.059 15.908C132.498 15.908 132.895 15.8333 133.249 15.684C133.613 15.5347 133.931 15.3107 134.201 15.012L134.943 15.88C134.607 16.272 134.187 16.5707 133.683 16.776C133.189 16.9813 132.633 17.084 132.017 17.084ZM137.286 17V9.58H138.574V11.596L138.448 11.092C138.653 10.5787 138.998 10.1867 139.484 9.916C139.969 9.64533 140.566 9.51 141.276 9.51V10.812C141.22 10.8027 141.164 10.798 141.108 10.798C141.061 10.798 141.014 10.798 140.968 10.798C140.249 10.798 139.68 11.0127 139.26 11.442C138.84 11.8713 138.63 12.492 138.63 13.304V17H137.286ZM145.179 17L141.931 9.58H143.331L146.215 16.3H145.543L148.483 9.58H149.799L146.551 17H145.179ZM154.152 17.084C153.359 17.084 152.659 16.9207 152.052 16.594C151.455 16.2673 150.988 15.8193 150.652 15.25C150.326 14.6807 150.162 14.0273 150.162 13.29C150.162 12.5527 150.321 11.8993 150.638 11.33C150.965 10.7607 151.408 10.3173 151.968 10C152.538 9.67333 153.177 9.51 153.886 9.51C154.605 9.51 155.24 9.66867 155.79 9.986C156.341 10.3033 156.77 10.7513 157.078 11.33C157.396 11.8993 157.554 12.5667 157.554 13.332C157.554 13.388 157.55 13.4533 157.54 13.528C157.54 13.6027 157.536 13.6727 157.526 13.738H151.212V12.772H156.826L156.28 13.108C156.29 12.632 156.192 12.2073 155.986 11.834C155.781 11.4607 155.496 11.1713 155.132 10.966C154.778 10.7513 154.362 10.644 153.886 10.644C153.42 10.644 153.004 10.7513 152.64 10.966C152.276 11.1713 151.992 11.4653 151.786 11.848C151.581 12.2213 151.478 12.6507 151.478 13.136V13.36C151.478 13.8547 151.59 14.298 151.814 14.69C152.048 15.0727 152.37 15.3713 152.78 15.586C153.191 15.8007 153.662 15.908 154.194 15.908C154.633 15.908 155.03 15.8333 155.384 15.684C155.748 15.5347 156.066 15.3107 156.336 15.012L157.078 15.88C156.742 16.272 156.322 16.5707 155.818 16.776C155.324 16.9813 154.768 17.084 154.152 17.084ZM162.486 17.084C161.768 17.084 161.124 16.9253 160.554 16.608C159.994 16.2907 159.551 15.8473 159.224 15.278C158.898 14.7087 158.734 14.046 158.734 13.29C158.734 12.534 158.898 11.876 159.224 11.316C159.551 10.7467 159.994 10.3033 160.554 9.986C161.124 9.66867 161.768 9.51 162.486 9.51C163.112 9.51 163.676 9.65 164.18 9.93C164.684 10.21 165.086 10.63 165.384 11.19C165.692 11.75 165.846 12.45 165.846 13.29C165.846 14.13 165.697 14.83 165.398 15.39C165.109 15.95 164.712 16.3747 164.208 16.664C163.704 16.944 163.13 17.084 162.486 17.084ZM162.598 15.908C163.065 15.908 163.485 15.8007 163.858 15.586C164.241 15.3713 164.54 15.068 164.754 14.676C164.978 14.2747 165.09 13.8127 165.09 13.29C165.09 12.758 164.978 12.3007 164.754 11.918C164.54 11.526 164.241 11.2227 163.858 11.008C163.485 10.7933 163.065 10.686 162.598 10.686C162.122 10.686 161.698 10.7933 161.324 11.008C160.951 11.2227 160.652 11.526 160.428 11.918C160.204 12.3007 160.092 12.758 160.092 13.29C160.092 13.8127 160.204 14.2747 160.428 14.676C160.652 15.068 160.951 15.3713 161.324 15.586C161.698 15.8007 162.122 15.908 162.598 15.908ZM165.132 17V14.998L165.216 13.276L165.076 11.554V6.612H166.42V17H165.132ZM171.967 17V16.048L175.957 12.198C176.312 11.862 176.573 11.568 176.741 11.316C176.919 11.0547 177.035 10.8167 177.091 10.602C177.157 10.378 177.189 10.1633 177.189 9.958C177.189 9.454 177.012 9.05733 176.657 8.768C176.303 8.47867 175.785 8.334 175.103 8.334C174.581 8.334 174.109 8.42267 173.689 8.6C173.269 8.768 172.905 9.034 172.597 9.398L171.645 8.572C172.019 8.096 172.518 7.732 173.143 7.48C173.778 7.21867 174.473 7.088 175.229 7.088C175.911 7.088 176.503 7.2 177.007 7.424C177.511 7.63867 177.899 7.95133 178.169 8.362C178.449 8.77267 178.589 9.258 178.589 9.818C178.589 10.1353 178.547 10.448 178.463 10.756C178.379 11.064 178.221 11.3907 177.987 11.736C177.754 12.0813 177.418 12.4687 176.979 12.898L173.423 16.328L173.087 15.782H179.009V17H171.967ZM184.151 17.112C183.385 17.112 182.699 16.916 182.093 16.524C181.495 16.132 181.019 15.5627 180.665 14.816C180.319 14.0693 180.147 13.164 180.147 12.1C180.147 11.036 180.319 10.1307 180.665 9.384C181.019 8.63733 181.495 8.068 182.093 7.676C182.699 7.284 183.385 7.088 184.151 7.088C184.907 7.088 185.588 7.284 186.195 7.676C186.801 8.068 187.277 8.63733 187.623 9.384C187.968 10.1307 188.141 11.036 188.141 12.1C188.141 13.164 187.968 14.0693 187.623 14.816C187.277 15.5627 186.801 16.132 186.195 16.524C185.588 16.916 184.907 17.112 184.151 17.112ZM184.151 15.866C184.664 15.866 185.112 15.726 185.495 15.446C185.887 15.166 186.19 14.746 186.405 14.186C186.629 13.626 186.741 12.9307 186.741 12.1C186.741 11.2693 186.629 10.574 186.405 10.014C186.19 9.454 185.887 9.034 185.495 8.754C185.112 8.474 184.664 8.334 184.151 8.334C183.637 8.334 183.185 8.474 182.793 8.754C182.401 9.034 182.093 9.454 181.869 10.014C181.654 10.574 181.547 11.2693 181.547 12.1C181.547 12.9307 181.654 13.626 181.869 14.186C182.093 14.746 182.401 15.166 182.793 15.446C183.185 15.726 183.637 15.866 184.151 15.866ZM189.331 17V16.048L193.321 12.198C193.675 11.862 193.937 11.568 194.105 11.316C194.282 11.0547 194.399 10.8167 194.455 10.602C194.52 10.378 194.553 10.1633 194.553 9.958C194.553 9.454 194.375 9.05733 194.021 8.768C193.666 8.47867 193.148 8.334 192.467 8.334C191.944 8.334 191.473 8.42267 191.053 8.6C190.633 8.768 190.269 9.034 189.961 9.398L189.009 8.572C189.382 8.096 189.881 7.732 190.507 7.48C191.141 7.21867 191.837 7.088 192.593 7.088C193.274 7.088 193.867 7.2 194.371 7.424C194.875 7.63867 195.262 7.95133 195.533 8.362C195.813 8.77267 195.953 9.258 195.953 9.818C195.953 10.1353 195.911 10.448 195.827 10.756C195.743 11.064 195.584 11.3907 195.351 11.736C195.117 12.0813 194.781 12.4687 194.343 12.898L190.787 16.328L190.451 15.782H196.373V17H189.331ZM200.52 17.112C199.829 17.112 199.157 17.0047 198.504 16.79C197.86 16.5753 197.332 16.286 196.922 15.922L197.566 14.816C197.892 15.124 198.317 15.376 198.84 15.572C199.362 15.768 199.922 15.866 200.52 15.866C201.248 15.866 201.812 15.712 202.214 15.404C202.624 15.0867 202.83 14.662 202.83 14.13C202.83 13.6167 202.634 13.206 202.242 12.898C201.859 12.5807 201.248 12.422 200.408 12.422H199.624V11.442L202.536 7.858L202.732 8.418H197.37V7.2H203.838V8.152L200.94 11.722L200.212 11.288H200.674C201.859 11.288 202.746 11.554 203.334 12.086C203.931 12.618 204.23 13.2947 204.23 14.116C204.23 14.6667 204.094 15.1707 203.824 15.628C203.553 16.0853 203.142 16.4493 202.592 16.72C202.05 16.9813 201.36 17.112 200.52 17.112Z" fill="black"/>
<path d="M5.67383 10.6899C5.67383 8.80518 6.1792 7.35254 7.18994 6.33203C8.06885 5.44336 9.18701 4.99902 10.5444 4.99902C12.3608 4.99902 13.689 5.59473 14.5288 6.78613C14.9927 7.45508 15.2417 8.12646 15.2759 8.80029H13.02C12.8735 8.28271 12.6855 7.89209 12.4561 7.62842C12.0459 7.15967 11.438 6.92529 10.6323 6.92529C9.81201 6.92529 9.16504 7.25732 8.69141 7.92139C8.21777 8.58057 7.98096 9.51562 7.98096 10.7266C7.98096 11.9375 8.22998 12.8457 8.72803 13.4512C9.23096 14.0518 9.86816 14.3521 10.6396 14.3521C11.4307 14.3521 12.0337 14.0933 12.4487 13.5757C12.6782 13.2974 12.8687 12.8799 13.02 12.3232H15.2539C15.0586 13.5 14.5581 14.457 13.7524 15.1943C12.9517 15.9316 11.9238 16.3003 10.6689 16.3003C9.11621 16.3003 7.89551 15.8022 7.00684 14.8062C6.11816 13.8052 5.67383 12.4331 5.67383 10.6899Z" fill="black"/>
<circle cx="10.5" cy="10.5" r="10" stroke="black"/>
</svg>
