<svg width="12" height="21" viewBox="0 0 12 21" fill="none" xmlns="http://www.w3.org/2000/svg">
<path d="M0.661687 11.1846H3.00496V20.6612C3.00496 20.8484 3.15929 21 3.34976 21H7.32287C7.51333 21 7.66766 20.8484 7.66766 20.6612V11.2292H10.3615C10.5366 11.2292 10.684 11.1001 10.704 10.9292L11.1131 7.44035C11.1243 7.34436 11.0934 7.24824 11.028 7.17623C10.9626 7.10415 10.8689 7.06289 10.7707 7.06289H7.6678V4.87592C7.6678 4.21666 8.02914 3.88235 8.7419 3.88235C8.84347 3.88235 10.7707 3.88235 10.7707 3.88235C10.9611 3.88235 11.1154 3.73068 11.1154 3.54364V0.341215C11.1154 0.154113 10.9611 0.00250645 10.7707 0.00250645H7.97473C7.95501 0.00155806 7.91122 0 7.84668 0C7.36155 0 5.67531 0.0935513 4.34331 1.29732C2.86746 2.63129 3.07261 4.22851 3.12164 4.50544V7.06283H0.661687C0.471224 7.06283 0.316895 7.21443 0.316895 7.40154V10.8458C0.316895 11.0329 0.471224 11.1846 0.661687 11.1846Z" fill="#8CC640"/>
</svg>
