<svg width="22" height="21" viewBox="0 0 22 21" fill="none" xmlns="http://www.w3.org/2000/svg">
<path d="M4.89896 6.74748H0.673947C0.486435 6.74748 0.334496 6.89948 0.334496 7.08693V20.6601C0.334496 20.8476 0.486435 20.9995 0.673947 20.9995H4.89896C5.08647 20.9995 5.23841 20.8476 5.23841 20.6601V7.08693C5.23841 6.89948 5.08647 6.74748 4.89896 6.74748Z" fill="#8CC640"/>
<path d="M2.78798 0C1.25067 0 0 1.24932 0 2.78492C0 4.32121 1.25067 5.571 2.78798 5.571C4.32406 5.571 5.57372 4.32114 5.57372 2.78492C5.57379 1.24932 4.32406 0 2.78798 0Z" fill="#8CC640"/>
<path d="M15.6456 6.41064C13.9487 6.41064 12.6943 7.14012 11.9334 7.96899V7.08744C11.9334 6.89999 11.7815 6.74799 11.594 6.74799H7.5478C7.36029 6.74799 7.20835 6.89999 7.20835 7.08744V20.6606C7.20835 20.8481 7.36029 21 7.5478 21H11.7636C11.9511 21 12.103 20.8481 12.103 20.6606V13.945C12.103 11.682 12.7177 10.8004 14.2952 10.8004C16.0132 10.8004 16.1498 12.2138 16.1498 14.0615V20.6607C16.1498 20.8482 16.3017 21.0001 16.4892 21.0001H20.7066C20.8941 21.0001 21.046 20.8482 21.046 20.6607V13.2155C21.046 9.85057 20.4044 6.41064 15.6456 6.41064Z" fill="#8CC640"/>
</svg>
