<svg width="17" height="21" viewBox="0 0 17 21" fill="none" xmlns="http://www.w3.org/2000/svg">
<path d="M14.3647 2.15198C12.9192 0.764289 10.9187 0 8.7319 0C5.39141 0 3.33684 1.36931 2.20153 2.51796C0.802311 3.93354 0 5.81318 0 7.67497C0 10.0126 0.977777 11.8068 2.61517 12.4743C2.72509 12.5193 2.83571 12.542 2.94416 12.542C3.28959 12.542 3.56329 12.316 3.65812 11.9534C3.71341 11.7454 3.84146 11.2323 3.89716 11.0095C4.01635 10.5696 3.92005 10.358 3.66009 10.0517C3.18652 9.49131 2.96598 8.8287 2.96598 7.96634C2.96598 5.40486 4.8733 2.68256 8.40833 2.68256C11.2132 2.68256 12.9556 4.27676 12.9556 6.84296C12.9556 8.46235 12.6068 9.96205 11.9732 11.066C11.533 11.8331 10.7588 12.7474 9.57031 12.7474C9.05638 12.7474 8.59471 12.5363 8.30341 12.1683C8.02824 11.8203 7.93751 11.3709 8.04821 10.9024C8.17323 10.3732 8.34373 9.82108 8.50874 9.28738C8.80967 8.3126 9.09416 7.39192 9.09416 6.65736C9.09416 5.40097 8.32175 4.55674 7.17228 4.55674C5.71146 4.55674 4.56699 6.04045 4.56699 7.93456C4.56699 8.86348 4.81387 9.55829 4.92563 9.82506C4.7416 10.6048 3.64787 15.2404 3.44041 16.1145C3.32044 16.6248 2.59782 20.6552 3.79388 20.9765C5.13773 21.3376 6.33896 17.4123 6.46123 16.9687C6.56032 16.608 6.90703 15.244 7.11949 14.4055C7.76824 15.0303 8.81279 15.4528 9.82916 15.4528C11.7452 15.4528 13.4684 14.5906 14.6813 13.0251C15.8575 11.5067 16.5054 9.39037 16.5054 7.06625C16.5053 5.24933 15.725 3.45809 14.3647 2.15198Z" fill="#8CC640"/>
</svg>
