<svg width="26" height="21" viewBox="0 0 26 21" fill="none" xmlns="http://www.w3.org/2000/svg">
<path d="M25.1979 2.42356C24.7929 2.60226 24.3765 2.7531 23.951 2.87558C24.4547 2.30879 24.8388 1.64191 25.0732 0.912155C25.1258 0.74859 25.0713 0.569546 24.9362 0.46254C24.8012 0.355484 24.6136 0.342659 24.465 0.430278C23.5614 0.963454 22.5865 1.34664 21.5643 1.57067C20.5346 0.569696 19.136 0 17.6902 0C14.6384 0 12.1555 2.47005 12.1555 5.50609C12.1555 5.7452 12.1707 5.98301 12.2008 6.21751C8.41375 5.88673 4.89298 4.03491 2.47531 1.08449C2.38915 0.979335 2.25641 0.922625 2.1205 0.933496C1.98454 0.944067 1.86233 1.02036 1.79364 1.13764C1.30328 1.9747 1.04405 2.93209 1.04405 3.90622C1.04405 5.23297 1.52016 6.49174 2.36125 7.47538C2.10549 7.38726 1.85734 7.27715 1.62047 7.14635C1.49332 7.07592 1.33812 7.07702 1.21178 7.14906C1.08539 7.22114 1.00613 7.35365 1.00275 7.49853C1.00215 7.52293 1.00215 7.54732 1.00215 7.57207C1.00215 9.55243 2.07352 11.3354 3.71154 12.3072C3.5708 12.2932 3.4302 12.2729 3.29046 12.2464C3.1464 12.219 2.9983 12.2692 2.90116 12.3785C2.80388 12.4877 2.77165 12.64 2.81652 12.779C3.4228 14.6622 4.98378 16.0473 6.87086 16.4696C5.3057 17.4449 3.51586 17.9557 1.63693 17.9557C1.24487 17.9557 0.85058 17.9328 0.464704 17.8874C0.273 17.8647 0.0897052 17.9773 0.0243939 18.1587C-0.0409175 18.3401 0.0283216 18.5424 0.191373 18.6464C2.60517 20.1861 5.39619 21 8.26259 21C13.8975 21 17.4226 18.3564 19.3875 16.1388C21.8376 13.3735 23.2428 9.71334 23.2428 6.09688C23.2428 5.94579 23.2405 5.79325 23.2358 5.64115C24.2025 4.91661 25.0347 4.03972 25.7119 3.03188C25.8148 2.87884 25.8037 2.6765 25.6845 2.53563C25.5656 2.39451 25.3672 2.34892 25.1979 2.42356Z" fill="#8CC640"/>
</svg>
